<svg width="0" height="0" class="hidden">
  <symbol xmlns="http://www.w3.org/2000/svg" viewBox="0 0 130 130" id="icon-play">
    <path d="M58.521 0.13572C58.0219 0.256183 55.5699 0.686409 53.0729 1.09112C6.17415 8.69809 -16.0083 65.9044 13.0263 104.367C22.0681 116.344 42.8323 129.906 43.8607 124.506C43.9895 123.832 
    42.7534 122.978 39.6854 121.624C27.0991 116.065 15.7097 105.112 9.49548 92.5938C-13.0744 47.1276 25.5402 -4.32319 75.965 4.02852C83.5399 5.28359 84.8555 2.66782 77.4319 1.11129C74.053 0.402757 
    60.344 -0.303999 58.521 0.136315V0.13572ZM58.8236 13.5427C49.9562 14.8494 38.5455 19.3896 38.5455 21.6114C38.5455 23.3352 39.8261 23.2017 44.5063 20.9901C70.1424 8.8779 101.354 22.1306 110.64 
    49.0716C126.075 93.8524 75.1194 131.76 36.427 104.279C14.9264 89.009 9.96843 58.679 25.4031 36.8396C29.4989 31.0443 27.3436 28.5941 23.1612 34.2915C-2.60779 69.3966 24.2964 118.982 67.7711 
    116.507C111.658 114.008 132.641 61.4206 102.441 29.6195C91.3694 17.9613 73.5089 11.378 58.8242 13.5415L58.8236 13.5427ZM111.588 21.4488C110.688 22.349 111.376 23.9601 114.257 27.704C135.62 
    55.4579 128.626 96.9429 99.2939 116.46C86.0768 125.255 74.472 127.692 52.7708 126.233C50.7271 126.096 50.3491 126.252 50.3491 127.237C50.3491 131.711 76.324 130.498 89.2029 125.422C126.968 
    110.539 141.858 62.4946 119.094 28.9739C114.774 22.6137 112.602 20.4352 111.588 21.4494L111.588 21.4488ZM47.2645 44.1107C46.191 45.2963 46.099 46.6867 45.9347 64.2031C45.6647 92.9997 42.7985 
    92.1292 77.569 73.8111C94.5145 64.8831 94.6095 65.1632 70.3056 52.4143C51.3039 42.4467 49.3949 41.7584 47.2645 44.1107ZM68.2637 55.0052C86.726 64.6481 86.8221 64.7081 85.5308 65.7798C84.0829 
    66.982 51.1615 84 50.285 84C49.5812 84 49.4412 80.8353 49.4412 64.9324C49.4412 51.5574 49.6388 45.8642 50.1022 45.8642C50.4654 45.8642 58.6385 49.9778 68.2643 55.0052H68.2637Z"></path>
  </symbol>
  <symbol xmlns="http://www.w3.org/2000/svg" viewBox="0 0 50 50" id="icon-logo">
    <path d="M20.4506 5.25918C19.0919 5.69691 17.9456 6.47652 17.6601 7.15634L17.5398 7.4419L15.6561 7.43301L15.4116 6.93006C15.2253 6.54668 15.063 6.3708 14.7263 6.18701L14.2864 5.94591H11.1062C6.93498 
    5.94591 6.40895 6.15341 6.40895 7.80355V8.26796L5.69955 8.61478C3.08441 9.8924 1.03538 12.416 0.225789 15.3546L0.000346207 16.1748V26.2584C0.000346207 37.2698 -0.0327188 36.5584 0.547422 38.1166C1.84798 
    41.6086 4.86291 44.1352 8.54916 44.8258C9.78859 45.0581 40.2114 45.0581 41.4508 44.8258C45.1371 44.1362 48.152 41.6096 49.4526 38.1166C50.0327 36.5584 49.9997 37.2698 49.9997 26.2584V16.1748L49.7832 
    15.4031C48.649 11.3647 45.7433 8.61182 41.6342 7.67905C41.02 7.53972 40.2134 7.50514 36.6765 7.46858L32.4532 7.42412L32.3369 7.14745C32.0504 6.46565 30.8209 5.64553 29.4663 5.23349C28.3992 4.9084 
    21.4756 4.92816 20.4506 5.25918ZM40.0601 10.8222C43.053 11.1256 45.3856 12.9526 46.3976 15.7874L46.6731 16.5591L46.7012 25.871C46.7332 36.5189 46.7653 36.0218 45.9236 37.7342C44.9758 39.662 43.064 
    41.1205 40.9288 41.5453C39.7856 41.7726 10.2114 41.7726 9.07118 41.5453C6.91594 41.1145 5.0112 39.6284 4.00923 37.5949C3.24473 36.0426 3.26677 36.4072 3.29883 25.871L3.32689 16.5591L3.63149 15.7163C4.60841 
    13.0168 6.9961 11.1167 9.77356 10.8291C10.9589 10.7066 38.8517 10.6997 40.0601 10.8212V10.8222ZM9.51706 11.8884C6.37889 12.3419 4.35391 14.8942 4.35391 18.398V19.6954H11.0661L11.2915 19.2369C12.2845 
    17.2123 14.2844 15.0167 16.4357 13.5869C17.2402 13.0524 19.3614 11.9763 19.6109 11.9763C19.669 11.9763 19.7161 11.9328 19.7161 11.8795C19.7161 11.7609 10.3457 11.7678 9.51706 11.8874V11.8884ZM30.2839 
    11.8548C30.2839 11.9002 30.4492 11.9951 30.6506 12.0652C33.7206 13.1294 37.462 16.4702 38.7385 19.2863L38.9249 19.6964H45.6471V18.399C45.6471 15.1284 44.1341 12.9842 41.1462 12.0168C40.5581 11.8261 
    30.2849 11.674 30.2849 11.8558L30.2839 11.8548ZM24.0707 12.5178C12.6663 13.6156 7.13237 25.9748 14.0931 34.7976C21.7892 44.5512 37.8768 39.7015 38.8858 27.3236C39.5611 19.0343 32.2528 11.7313 24.0707 
    12.5178ZM26.6638 15.9455C33.2327 16.8753 37.3277 23.963 34.8278 30.0774C31.9482 37.1216 22.708 38.9279 17.4136 33.4804C10.3908 26.2544 16.5819 14.5187 26.6638 15.9455ZM23.8723 17.5719C17.9617 18.395 
    14.553 24.3474 16.8885 29.7701C19.5698 35.9942 28.5605 36.7659 32.376 31.1001C36.5512 24.9007 31.2949 16.5394 23.8723 17.5719ZM27.7168 18.9098C28.8581 19.2596 29.7118 20.0768 29.7318 20.8366C29.7779 
    22.5886 26.2289 22.5332 25.0416 20.7635C24.1388 19.4187 25.747 18.3051 27.7168 18.9098ZM22.701 32.2552C23.7821 32.4805 25.3923 33.4557 25.3923 33.8846C25.3923 34.8865 21.7581 34.2393 20.697 
    33.0486C19.9636 32.2246 20.8564 31.8708 22.701 32.2552ZM41.9128 35.9991C39.8938 36.6167 40.2846 39.3863 42.3897 39.3794C44.5309 39.3725 44.6902 36.2629 42.564 35.9734C42.3486 35.9438 42.056 35.9556 
    41.9128 36.0001V35.9991Z"></path>
  </symbol>
  <symbol xmlns="http://www.w3.org/2000/svg" viewBox="0 0 32 32" id="social-fb">
    <path d="M13.04 29.333L13 17.666H8V12.666H13V9.33302C13 4.84002 15.787 2.66602 19.8 2.66602C21.72 2.66602 23.373 2.79902 23.853 2.86602V7.57302H21.066C18.893 7.57302 18.466 8.61302 18.466 
    10.133V12.666H24.666L22.999 17.666H18.466V29.333H13.039H13.04Z"></path>
  </symbol>
  <symbol xmlns="http://www.w3.org/2000/svg" viewBox="0 0 32 32" id="social-insta">
    <path d="M17.36 2.66699C19.76 2.66699 20.267 2.69399 21.493 2.74699C22.906 2.81399 23.88 3.03999 24.72 3.37399C25.6 3.70699 26.347 4.17399 27.08 4.90699C27.827 5.63999 28.28 6.38699 28.627 7.26699C28.96 
    8.10699 29.174 9.07999 29.24 10.507C29.307 11.774 29.32 12.267 29.32 14.934V17.067C29.32 19.734 29.307 20.227 29.24 21.494C29.217 22.659 28.994 23.764 28.604 24.788L28.626 24.721C28.279 25.601 27.826 
    26.348 27.093 27.081C26.346 27.828 25.6 28.281 24.72 28.628C23.88 28.961 22.907 29.175 21.493 29.241C20.226 29.308 19.72 29.321 17.053 29.321H14.933C12.266 29.321 11.773 29.308 10.493 29.241C9.32796 
    29.218 8.22296 28.995 7.19896 28.605L7.26596 28.627C6.34296 28.274 5.55596 27.753 4.90696 27.094L4.90596 27.093C4.23996 26.441 3.71396 25.649 3.37396 24.764L3.35896 24.719C2.99196 23.763 2.76896 22.657 
    2.74596 21.502V21.492C2.69296 20.45 2.66296 19.229 2.66296 18.002C2.66296 17.776 2.66396 17.55 2.66596 17.325V17.359V14.626C2.66596 12.226 2.69296 11.719 2.74596 10.493C2.81296 9.07999 3.03896 8.10599 
    3.35896 7.26599C3.70596 6.38599 4.15896 5.63899 4.90596 4.90599C5.55096 4.23899 6.33996 3.71599 7.22296 3.38699L7.26596 3.37299C8.22096 3.00199 9.32596 2.77399 10.481 2.74699H10.493C11.72 2.69399 12.226 
    2.66699 14.626 2.66699H17.36ZM17.387 5.06699H14.6C12.293 5.06699 11.8 5.09399 10.6 5.14699C9.30696 5.19999 8.59996 5.41399 8.13296 5.59999C7.50596 5.83999 7.06596 6.13299 6.59996 6.59999C6.13396 7.06699 
    5.83996 7.50699 5.59996 8.13299C5.42696 8.59999 5.19996 9.30599 5.14696 10.613C5.09396 11.813 5.06696 12.293 5.06696 14.613V17.386C5.06696 19.706 5.09396 20.186 5.14696 21.386C5.19996 22.679 5.41396 
    23.386 5.59996 23.853C5.83996 24.48 6.13296 24.92 6.59996 25.386C7.06696 25.852 7.50696 26.146 8.13296 26.386C8.59996 26.573 9.30596 26.786 10.613 26.839C11.906 26.906 12.373 26.919 15.253 
    26.919H16.733C19.626 26.919 20.08 26.906 21.386 26.839C22.679 26.786 23.386 26.572 23.853 26.386C24.48 26.146 24.92 25.853 25.386 25.386C25.852 24.919 26.146 24.479 26.386 23.853C26.573 23.386 
    26.786 22.68 26.839 21.386C26.906 20.079 26.919 19.626 26.919 16.733V15.266C26.919 12.373 26.906 11.906 26.839 10.599C26.786 9.30599 26.572 8.59899 26.386 8.13199C26.16 7.53099 25.819 7.01799 25.387 
    6.59999L25.386 6.59899C24.966 6.16599 24.454 5.82499 23.881 5.60799L23.853 5.59899C23.121 5.32299 22.275 5.15799 21.391 5.14599H21.386C20.358 5.09399 19.155 5.06399 17.944 5.06399C17.748 5.06399 
    17.552 5.06499 17.356 5.06599H17.386L17.387 5.06699ZM16 9.14699C19.781 9.14699 22.847 12.212 22.847 15.994C22.847 19.776 19.782 22.841 16 22.841C12.219 22.841 9.15296 19.776 9.15296 15.994C9.15296 
    12.212 12.218 9.14699 16 9.14699ZM16 11.547C13.544 11.547 11.553 13.538 11.553 15.994C11.553 18.45 13.544 20.441 16 20.441C18.456 20.441 20.447 18.45 20.447 15.994C20.447 13.538 18.456 11.547 
    16 11.547ZM23.107 7.27999C23.991 7.27999 24.707 7.99599 24.707 8.87999C24.707 9.76399 23.991 10.48 23.107 10.48C22.223 10.48 21.507 9.76399 21.507 8.87999C21.507 7.99599 22.223 7.27999 23.107 7.27999Z"></path>
  </symbol>
  <symbol xmlns="http://www.w3.org/2000/svg" viewBox="0 0 32 32" id="social-pint">
    <path d="M16 2.66699C8.65699 2.69399 2.71399 8.65299 2.71399 16C2.71399 21.599 6.16599 26.393 11.057 28.368L11.146 28.4C11.013 27.347 10.919 25.733 11.186 24.573L12.746 17.946C12.746 17.946 12.346 
    17.146 12.346 15.973C12.346 14.12 13.426 12.746 14.773 12.746C15.906 12.746 16.466 13.599 16.466 14.613C16.466 15.76 15.733 17.466 15.346 19.053C15.026 20.386 16.013 21.466 17.333 21.466C19.706 
    21.466 21.52 18.973 21.52 15.373C21.52 12.173 19.227 9.95999 15.947 9.95999C15.871 9.95599 15.783 9.95399 15.694 9.95399C12.505 9.95399 9.92099 12.539 9.92099 15.727C9.92099 15.729 9.92099 15.731 
    9.92099 15.733C9.92099 16.88 10.361 18.106 10.908 18.773C11.015 18.906 11.028 19.026 10.988 19.16L10.615 20.667C10.562 20.907 10.415 20.974 10.175 20.854C8.49499 20.067 7.45499 17.654 7.45499 
    15.681C7.45499 11.481 10.522 7.62799 16.282 7.62799C20.895 7.62799 24.509 10.908 24.509 15.321C24.509 19.921 21.602 23.614 17.576 23.614C16.243 23.614 14.963 22.907 14.536 22.081L13.696 25.241C13.265 
    26.578 12.704 27.739 12.008 28.804L12.042 28.748C13.212 29.12 14.558 29.335 15.953 29.335C23.317 29.335 29.286 23.365 29.286 16.002C29.286 8.65499 23.344 2.69599 16.004 2.66899H16.001L16 2.66699Z"></path>
  </symbol>
  <symbol xmlns="http://www.w3.org/2000/svg" viewBox="0 0 32 32" id="social-tweet">
    <path d="M29.333 7.83998C28.333 8.33298 27.333 8.50698 26.16 8.66698C27.333 7.99998 28.16 6.99998 28.493 5.66698C27.488 6.27498 26.317 6.73798 25.07 6.98898L25 7.00098C23.969 5.98698 22.56 5.35498 
    21.004 5.33398H21C18.16 5.33398 15.667 7.84098 15.667 10.841C15.667 11.334 15.667 11.668 15.84 12.001C11.262 11.823 7.22097 9.66398 4.52897 6.36198L4.50697 6.33398C4.08197 7.05998 3.83097 7.93198 
    3.83097 8.86298C3.83097 8.97198 3.83397 9.08098 3.84097 9.18898L3.83997 9.17398C3.87397 11.052 4.84897 12.695 6.31297 13.655L6.33397 13.668C5.49397 13.668 4.66697 13.335 3.82697 13.001C3.82697 15.668 
    5.66697 17.841 8.15997 18.334C7.66697 18.507 7.15997 18.507 6.66697 18.507C6.33397 18.507 5.99997 18.507 5.66697 18.334C6.33397 20.507 8.33397 22.174 10.84 22.174C9.03997 23.629 6.72397 24.509 4.20297 
    24.509C4.13197 24.509 4.06097 24.508 3.98997 24.507H4.00097H2.66797C5.03297 26.016 7.90397 26.936 10.984 27H11.001C21.001 27 26.508 18.667 26.508 11.493V10.826C27.655 10.036 28.601 9.03898 29.311 
    7.88198L29.335 7.83998H29.333Z"></path>
  </symbol>
  <symbol xmlns="http://www.w3.org/2000/svg" viewBox="0 0 24 24" id="arrow-up">
    <path d="M0 16.67l2.829 2.83 9.175-9.339 9.167 9.339 2.829-2.83-11.996-12.17z"></path>
  </symbol>
  <symbol xmlns="http://www.w3.org/2000/svg" viewBox="0 0 45 45" id="icon-light-mode">
    <path d="M22.8375 17.2125C23.95 17.2125 25.0376 17.5424 25.9626 18.1605C26.8876 18.7786 27.6086 19.6571 28.0343 20.6849C28.4601 21.7127 28.5715 22.8437 28.3544 23.9349C28.1374 25.026 27.6016 26.0283 
    26.815 26.815C26.0283 27.6016 25.026 28.1374 23.9349 28.3544C22.8437 28.5715 21.7127 28.4601 20.6849 28.0343C19.6571 27.6086 18.7786 26.8876 18.1605 25.9626C17.5424 25.0376 17.2125 23.95 17.2125 
    22.8375C17.2144 21.3462 17.8076 19.9166 18.8621 18.8621C19.9166 17.8076 21.3462 17.2144 22.8375 17.2125ZM22.8375 14.4C21.1687 14.4 19.5374 14.8949 18.1499 15.822C16.7623 16.7491 15.6809 18.0669 
    15.0423 19.6086C14.4037 21.1504 14.2366 22.8469 14.5621 24.4836C14.8877 26.1203 15.6913 27.6237 16.8713 28.8037C18.0513 29.9837 19.5547 30.7873 21.1914 31.1129C22.8281 31.4384 24.5246 31.2713 26.0664 
    30.6327C27.6081 29.9941 28.9259 28.9127 29.853 27.5251C30.7802 26.1376 31.275 24.5063 31.275 22.8375C31.275 20.5997 30.3861 18.4536 28.8037 16.8713C27.2214 15.2889 25.0753 14.4 22.8375 14.4Z"></path>
    <path d="M7.58531 9.58078L9.57375 7.59094L14.5041 12.5213L12.5156 14.5097L7.58531 9.58078Z"></path>
    <path d="M2.8125 21.1008H9.84375V23.9133H2.8125V21.1008Z"></path>
    <path d="M7.58531 35.4333L12.5156 30.503L14.5041 32.4928L9.57375 37.4217L7.58531 35.4333Z"></path>
    <path d="M21.0938 35.1633H23.9062V42.1945H21.0938V35.1633Z"></path>
    <path d="M30.4973 32.4928L32.4858 30.503L37.4161 35.4333L35.4277 37.4217L30.4973 32.4928Z"></path>
    <path d="M35.1562 21.1008H42.1875V23.9133H35.1562V21.1008Z"></path>
    <path d="M30.4973 12.5213L35.4277 7.59094L37.4161 9.58078L32.4858 14.5097L30.4973 12.5213Z"></path>
    <path d="M21.0938 2.81953H23.9062V9.85078H21.0938V2.81953Z"></path>
  </symbol>
  <symbol xmlns="http://www.w3.org/2000/svg" viewBox="0 0 41 40" id="icon-dark-mode">
    <path d="M21.4528 40C15.7066 40 10.315 37.8174 6.27098 33.8545C2.22701 29.8915 5.02421e-07 24.6074 5.02421e-07 18.9761C-0.00085731 15.0913 1.09674 11.2823 3.17098 7.97181C5.24521 4.66132 8.21494 
    1.97886 11.7505 0.222165C12.1143 0.0404498 12.5246 -0.032245 12.9302 0.0131555C13.3359 0.058556 13.7189 0.220041 14.0315 0.477451C14.344 0.734861 14.5723 1.07679 14.6878 1.46057C14.8033 1.84434 
    14.8009 2.25294 14.6809 2.63538C13.672 5.82896 13.5728 9.23201 14.3941 12.4768C15.2154 15.7216 16.9259 18.6847 19.3408 21.046C21.0739 22.757 23.136 24.1141 25.4078 25.0388C27.6796 25.9635 30.116 
    26.4374 32.576 26.433C34.4579 26.4345 36.3292 26.1578 38.1269 25.6125C38.5172 25.4948 38.9342 25.4924 39.3258 25.6056C39.7175 25.7188 40.0665 25.9425 40.3291 26.2488C40.5918 26.5552 40.7566 26.9306 
    40.8029 27.3282C40.8492 27.7257 40.775 28.1279 40.5895 28.4843C38.7969 31.9492 36.0597 34.8596 32.6817 36.8923C29.3036 38.9251 25.4169 40.0008 21.4528 40ZM11.6763 3.31431C8.93463 4.94908 6.66986 
    7.24958 5.10105 9.99327C3.53225 12.737 2.71252 15.831 2.72115 18.9761C2.72115 29.0982 11.1241 37.3333 21.4528 37.3333C24.6621 37.3418 27.8193 36.5384 30.619 35.001C33.4187 33.4636 35.7662 31.2441 
    37.4343 28.5573C35.8413 28.9186 34.2113 29.1007 32.5762 29.1C29.7587 29.1053 26.9682 28.5628 24.3661 27.5041C21.764 26.4453 19.4021 24.8913 17.417 22.9319C14.8382 20.4094 12.9578 17.2845 11.9533 
    13.8522C10.9489 10.4199 10.8536 6.79329 11.6763 3.31481V3.31431Z"></path>
  </symbol>
  <symbol xmlns="http://www.w3.org/2000/svg" viewBox="0 0 512 512" id="icon-video-play">
    <path d="M133,440a35.37,35.37,0,0,1-17.5-4.67c-12-6.8-19.46-20-19.46-34.33V111c0-14.37,7.46-27.53,19.46-34.33a35.13,35.13,0,0,1,35.77.45L399.12,225.48a36,36,0,0,1,0,61L151.23,434.88A35.5,35.5,0,0,1,133,440Z"></path>
  </symbol>
  <symbol version="1.1" id="icon-video-stop" xmlns="http://www.w3.org/2000/svg" xmlns:xlink="http://www.w3.org/1999/xlink" x="0px" y="0px" xml:space="preserve" viewBox="0 0 46.734 46.734">
    <g>
      <path d="M41.346,0H5.388C2.417,0,0,2.417,0,5.388v35.958c0,2.971,2.417,5.388,5.388,5.388h35.958c2.971,0,5.388-2.417,5.388-5.388
		V5.388C46.733,2.417,44.316,0,41.346,0z"></path>
    </g>
    <g></g>
    <g></g>
    <g></g>
    <g></g>
    <g></g>
    <g></g>
    <g></g>
    <g></g>
    <g></g>
    <g></g>
    <g></g>
    <g></g>
    <g></g>
    <g></g>
    <g></g>
  </symbol>
  <symbol xmlns="http://www.w3.org/2000/svg" xmlns:xlink="http://www.w3.org/1999/xlink" version="1.1" baseProfile="full" enable-background="new 0 0 76.01 76.01" xml:space="preserve" 
  viewBox="0 0 76.01 76.01" id="sound-on-quite">
    <path stroke-width="0.2" stroke-linejoin="round" d="M 20.5862,33.2547L 26.9204,33.2546L 36.4217,25.3369L 36.4217,52.2573L 26.9204,42.756L 20.5862,42.756C 18.8371,42.756 17.4191,41.338 
    17.4191,39.5889L 17.4191,36.4218C 17.4191,34.6726 18.8371,33.2547 20.5862,33.2547 Z M 44.3395,38.0053C 44.3395,40.1167 42.9621,41.9064 41.0568,42.5248L 39.5889,39.5889C 40.4634,39.5889 
    41.1724,38.8799 41.1724,38.0053C 41.1724,37.1307 40.4634,36.4218 39.5889,36.4218L 41.0568,33.4858C 42.9621,34.1042 44.3395,35.8939 44.3395,38.0053 Z "></path>
  </symbol>
  <symbol xmlns="http://www.w3.org/2000/svg" xmlns:xlink="http://www.w3.org/1999/xlink" version="1.1" baseProfile="full" enable-background="new 0 0 76.01 76.01" xml:space="preserve" 
  viewBox="0 0 76.01 76.01" id="sound-on-loud">
    <path stroke-width="0.2" stroke-linejoin="round" d="M 20.5862,33.2547L 26.9204,33.2546L 36.4217,25.3369L 36.4217,52.2573L 26.9204,42.756L 20.5862,42.756C 18.8371,42.756 17.4191,41.338 
    17.4191,39.5889L 17.4191,36.4218C 17.4191,34.6726 18.8371,33.2547 20.5862,33.2547 Z M 57.0079,38.0053C 57.0079,42.8155 55.0582,47.1702 51.906,50.3225L 49.6665,48.083C 52.2456,45.5039 
    53.8408,41.9409 53.8408,38.0053C 53.8408,34.0279 52.2115,30.431 49.5839,27.8457L 51.4982,25.2933C 54.8892,28.4715 57.0079,32.991 57.0079,38.0053 Z M 50.6737,38.0053C 50.6737,41.4696 
    49.0845,44.5627 46.5954,46.5954L 44.3398,44.3399C 46.2628,42.8953 47.5066,40.5956 47.5066,38.0053C 47.5066,35.4151 46.2628,33.1153 44.3398,31.6708L 46.5954,29.4152C 49.0845,31.4479 
    50.6737,34.541 50.6737,38.0053 Z M 44.3395,38.0053C 44.3395,40.1167 42.9621,41.9064 41.0568,42.5248L 39.5889,39.5889C 40.4634,39.5889 41.1724,38.8799 41.1724,38.0053C 41.1724,37.1307 
    40.4634,36.4218 39.5889,36.4218L 41.0568,33.4858C 42.9621,34.1042 44.3395,35.8939 44.3395,38.0053 Z "></path>
  </symbol>
  <symbol xmlns="http://www.w3.org/2000/svg" viewBox="0 0 20 20" id="icon-resize">
    <path d="M6.987 10.987l-2.931 3.031L2 11.589V18h6.387l-2.43-2.081 3.03-2.932-2-2zM11.613 2l2.43 2.081-3.03 2.932 2 2 2.931-3.031L18 8.411V2h-6.387z"></path>
  </symbol>
  <symbol version="1.1" xmlns="http://www.w3.org/2000/svg" xmlns:xlink="http://www.w3.org/1999/xlink" viewBox="0 0 24 24" id="icon-video-pause">
    <g stroke-width="1">
      <g>
        <path d="M10,18 C10,18.5522847 9.55228475,19 9,19 L8,19 C7.44771525,19 7,18.5522847 7,18 L7,6 C7,5.44771525 7.44771525,5 8,5 L9,5 C9.55228475,5 10,5.44771525 10,6 L10,18 Z 
        M17,18 C17,18.5522847 16.5522847,19 16,19 L15,19 C14.4477153,19 14,18.5522847 14,18 L14,6 C14,5.44771525 14.4477153,5 15,5 L16,5 C16.5522847,5 17,5.44771525 17,6 L17,18 Z" ></path>
      </g>
    </g>
  </symbol>
  <symbol version="1.1" id="icon-mute" xmlns="http://www.w3.org/2000/svg" xmlns:xlink="http://www.w3.org/1999/xlink" x="0px" y="0px" xml:space="preserve" viewBox="0 0 518.516 518.516">
    <g>
      <g>
        <path d="M257.269,78.412L91.494,196.757H26.775C12.01,196.757,0,208.844,0,223.532v71.451c0,14.765,12.087,26.774,26.775,26.774
			h64.719l165.775,118.346c12.086,8.645,21.727,3.596,21.727-11.169V89.581C279.072,74.816,269.355,69.768,257.269,78.412z"></path>
        <path d="M452.115,260.329l62.5-62.501c5.201-5.202,5.201-13.846,0-19.048l-12.623-12.623c-5.201-5.202-13.846-5.202-19.049,0
			l-62.5,62.5l-62.041-62.042c-5.201-5.202-13.846-5.202-19.049,0l-12.623,12.623c-5.201,5.202-5.201,13.847,0,19.048l62.043,62.042
			L326.73,322.37c-5.201,5.202-5.201,13.847,0,19.049l12.623,12.622c5.203,5.202,13.848,5.202,19.049,0L420.443,292l62.041,62.041
			c5.203,5.202,13.848,5.202,19.049,0l12.623-12.622c5.201-5.202,5.201-13.847,0-19.049L452.115,260.329z"></path>
      </g>
    </g>
    <g></g>
    <g></g>
    <g></g>
    <g></g>
    <g></g>
    <g></g>
    <g></g>
    <g></g>
    <g></g>
    <g></g>
    <g></g>
    <g></g>
    <g></g>
    <g></g>
    <g></g>
  </symbol>
  <symbol xmlns="http://www.w3.org/2000/svg" viewBox="0 0 15 15" id="sound-on">
    <path d="M8.74641 1.06494C8.90313 1.1537 9 1.31989 9 1.5V13.5C9 13.6801 8.9031 13.8463 8.74635 13.9351C8.58959 14.0239 8.39722 14.0214 8.24275 13.9287L3.36151 11H1.5C0.672066 
    11 0 10.329 0 9.5V5.49739C0 4.66798 0.672491 3.99804 1.5 3.99804H3.36159L8.24288 1.07118C8.39735 0.978558 8.58969 0.976173 8.74641 1.06494Z"></path>
    <path d="M13.8535 4.14438L13.4998 3.79094L12.793 4.49827L13.1444 4.84953L13.1466 4.85184C13.1502 4.85561 13.1571 4.86308 13.1669 4.87426C13.1864 4.89663 13.2175 4.93374 13.2564 
    4.98555C13.3342 5.08924 13.4428 5.2512 13.5529 5.47128C13.7723 5.90979 14.0001 6.58318 14.0001 7.49609C14.0001 8.409 13.7723 9.08238 13.5529 9.5209C13.4428 9.74097 13.3342 9.90294 
    13.2564 10.0066C13.2175 10.0584 13.1864 10.0955 13.1669 10.1179C13.1571 10.1291 13.1502 10.1366 13.1466 10.1403L13.1445 10.1426L12.793 10.4939L13.4998 11.2012L13.8535 10.8478L13.5001 
    10.4941C13.8535 10.8478 13.8533 10.848 13.8535 10.8478L13.8543 10.8471L13.8551 10.8462L13.857 10.8443L13.862 10.8392L13.876 10.8245C13.8871 10.8127 13.9017 10.7967 13.9192 10.7767C13.9543 
    10.7366 14.0014 10.68 14.0562 10.6069C14.1659 10.4607 14.3073 10.2479 14.4472 9.96835C14.7278 9.40751 15.0001 8.58188 15.0001 7.49609C15.0001 6.4103 14.7278 5.58467 14.4472 
    5.02383C14.3073 4.74423 14.1659 4.53144 14.0562 4.3853C14.0014 4.31219 13.9543 4.25561 13.9192 4.21551C13.9017 4.19546 13.8871 4.17951 13.876 4.16767L13.862 4.15296L13.857 
    4.1479L13.8551 4.14595L13.8543 4.14511C13.8541 4.14493 13.8535 4.14438 13.5001 4.49804L13.8535 4.14438Z"></path>
  </symbol>
  <symbol version="1.1" id="sound-loud" xmlns="http://www.w3.org/2000/svg" xmlns:xlink="http://www.w3.org/1999/xlink" x="0px" y="0px" enable-background="new 0 0 260 228" xml:space="preserve" viewBox="0 0 260 228">
    <path d="M170.81,78.043l15.653-15.653c14.848,12.299,24.323,30.868,24.323,51.61c0,21.04-9.757,39.836-24.974,52.128l-15.68-15.68
	c11.291-8.184,18.655-21.469,18.655-36.448C188.786,99.32,181.719,86.262,170.81,78.043z M236,114
	c0,28.068-12.569,53.253-32.371,70.231l15.584,15.584C242.982,178.82,258,148.133,258,114c0-33.836-14.757-64.286-38.168-85.265
	L204.257,44.31C223.696,61.28,236,86.229,236,114z M146,2L56.4,66H2v96h54.4l89.6,64V2z"></path>
  </symbol>
</svg>